<?xml version="1.0" encoding="UTF-8"?>
<svg id="Layer_2" data-name="Layer 2" xmlns="http://www.w3.org/2000/svg" viewBox="0 0 297.85 94.96">
  <defs>
    <style>
      .cls-1 {
        fill: #1d1d1b;
      }
    </style>
  </defs>
  <g id="Laag_1" data-name="Laag 1">
    <g>
      <path class="cls-1" d="M52,90.77l.24-.69.26-.43v-.13l.47-.99-.13-.37-.13-.82-.65-.63-.06-.28.04-.37.13-.39.28-.28.32-.04.52.11.09.24-.06.26,1.08.6.28.09.41-.15.5-.43.22-.02-.35-.32.19-.28.34-.09.5.09.15.41.47.35.65.62.11.69.19.13.24.65.11.8-.06.19-.26.39-.97.86-.15.5-.28.22h-1.03l-.09-.13-.28-.02.17-.6-.15-.19-.54-.07-.82.26.11.17-.43.47-.17.13-.54.17-.6-.15-.19-.22-.11-.3ZM54.93,87.5l.39.06.24-.3-.13-.15-.3-.15-.8.09.17.28.43.17ZM55.42,88.38l.26.39.54-.09.11-.11-.15-.32-.28-.09-.45.13-.02.09Z"/>
      <path class="cls-1" d="M64.37,93.45l-.06-.41.54-.82.45-.09.43.15.69.41.93.22,1.08.13h.75l1.01-.15.54-.28.58-.52.58-.71v-.43l.13-.6.06-.11-.39-.95-.04-.41-.67-.35-.3-.41.19-.24-.56-.11-.78-.28-1.44-.97-1.44-.8-.47-.37-.43-.47-.52-.78-.13-.28-.09-.47-.17-.19-.11-.26v-1.4l.34-.22-.15-.54.15-.41.37-.22.19-.73.24-.24,1.25-.43.28-.26.37-.15.73-.13h.78l1.1.13.6.13,1.16.43.22.22.11.3-.3.58v.41l-.19.09h-.58l-.71-.15-.95-.3-.75-.11-.65.04-.22.11.02.13-.78.52-.32.37-.26.45-.22.62.26.43.09.41-.06.09.28.5.69.54.06.58.28.13.95.17.56.39,1.21.6.91.73.45.19.47.56.06.22.54.47.17.52v.41l.15.17.17.34.11.84-.15.84-.04.71-.26.37-.35.84-.5.41-.17.21-.8.52-.71.26-1.01.19h-2.85l-1.47-.28-.93-.43-.32-.65Z"/>
      <path class="cls-1" d="M80.2,79.78l-.67-.41.09-.32.17-.15.56-.24.73-.13h1.57l1.44.15,1.03-.13.28.04.78.3.22.47-.63.41-.41.15.3.39-.69.15-.6.28-.28.28-.22.39-.09.75.17.52-.28.63.26.84-.09.37.04.11v.52l-.17.52.22.52-.17.47.19.84-.15.28-.3.17.34.26.11.28-.11.47.09.78v1.08l-.11.65.41,1.1.26.19.54.04.5.11.37.17.35.34.09.52-.04.13-.41.52-.58.06h-.97l-.75.09h-2.91l-.41-.06-.34-.15-.26-.28.06-.43-.06-.47.06-.09.43-.21,1.12-.24.37-.43.19-.32.26-.67v-.95l.06-.28-.19-.15v-3.54l.09-.91-.09-.28v-2.29l-.06-.34.15-.54v-.84l-.32-.43-.75-.45-1.06-.34.28-.26Z"/>
      <path class="cls-1" d="M91.97,94.01l-.13-.37.09-1.16-.09-.75.09-.69-.09-.28.11-.67-.11-.19v-1.53l.19-.41-.19-.47v-1.14l.09-.35-.09-.73.06-.24.22-.26-.28-.32v-1.64l.19-.56-.19-.24.06-.56v-1.1l.17-.04-.24-.6.19-.56.28-.3.32-.17.52-.06.95.32.3.22.13.41-.02.26.56.58.09.24.04.37.19.13.19.47.09.69.45.35.15.26-.06.47.41.32.06.22v.5l.63.6.04.34v.43l.32.06.13.41.47.84.06.43.32.65.22.22.54,1.01.43-.13.19-.26.09-.5.13-.26v-1.06l.09-.65-.09-.28v-3.3l-.06-.54.13-.34-.06-.26v-1.64l.37-.43-.37-.13.22-.6.17-.09.58-.06.54.13.19.39-.22.39.28.6v1.34l-.13.43.17.58-.04.32-.22.11.17.56v1.38l.09.88-.17.43.17.93-.13.41-.28.24.32.26v.95l.09.19v3.04l-.09.41.09.41-.04.39-.13.39-.24.32-.62.3h-.39l-.65-.19-.34-.26-.32-.71-.32-.47-.17-.47-.35-.47-.24-.95-.37-.41-.5-1.12.11-.37-.69-.75-.06-.39.15-.19-.28-.19-.22-.22-.3-.8-.43-.6.06-.28-.17-.32-.45-.47v-.37l.24-.15-.41-.22-.65-.19-.24.04-.32.45.13.3v1.4l-.28.5.24.43-.09,1.06.13.37-.09.5.09.5-.15.47.09-.22.06.88-.28.75.24.22.04.28-.19.67.19.37-.19.86-.37.58-.91-.11-.15-.09-.28-.28Z"/>
      <path class="cls-1" d="M106.42,92.33l-.26-.58v-.54l.34-.3-.69-.11-.11-.69-.06-.17-.13-.6-.09-1.12-.13-.6v-2.2l.26-.84-.09-.45.19-1.12.17-.47.41-.47-.17-.17.15-.54.24-.26.09-.39.73-.75.15-.28.45-.54.82-.47.65-.04.09-.11.26-.22.54-.09h1.7l.26.19,1.57.45.56.32,1.01,1.31-.15.73-.22.26-.26.15h-.39l-.67-.34-1.03-.99-1.04-.47h-.82l-.67.17-1.14.67-.47.39.11.24-.13.28-.56.78-.06.62-.24.3-.24.13.19.56-.22.39v.37l.06.3-.06.39-.15.26.17.54-.11.45.09.97-.09.54.19.09.19,1.85.24.32.17.47.04.41.39.22.22.3.24.45.28.3.28.17.73.22.86.09.84-.07.69-.19.37-.24.99-.86.45-.15.65.06.13.07.26,1.14-.78.84-.6.5-.6.3-.71.24-1.1.28h-.91l-1.01-.11-.88-.26-.56-.28-.69-.52-.67-.67-.54-.8Z"/>
      <path class="cls-1" d="M119.94,93.77l-.11-.52v-1.29l-.09-.37.17-.43-.09-.3.09-.78-.06-.52.06-.67-.09-.22.09-1.36v-1.92l-.06-.45.04-.52.13-.54-.19-.26v-1.01l.09-.63-.09-.37v-1.25l.13-1.23.41-.41.39-.19h7.42l.22.11.99.28.35.58-.26.37-.43.22-2.57.24h-1.83l-.84-.11-.5.11-.65.24-.52.32-.3.35v.91l-.37.43.37.37v.6l-.17.3.26.22.15.8.75.34.67.06h4.81l.39.06.19.11.3.32.22.62-.22.3-.32.17-.54.17-.52.06-.58-.15h-3.47l-.13-.13-.5.24-.69.09-.19.22-.3.5-.11.45.09.56-.26.58.17.6v.26l-.41.09.45.58v.52l-.09.24.41.69.65.6.37.15.86-.15h1.62l1.01-.09.43.09h1.83l.3.06.39.34-.09.39v.56l-.52.26-.95.11h-4.38l-.45-.11-.24.11h-2.05l-.63-.5-.45-.19.02-.3Z"/>
      <path class="cls-1" d="M139.18,94.44l.19-.07-.78-.41-.32-.67.22-1.29.22-.47.39-.69.32-.26.04-.41.26-.47.8-1.08.6-.63.95-.84.6-.73.32-.24.65.15-.24-.54.67-.39.06-.19.35-.45.24-.19.43-.5.17-.6.32-.37.13-.17.13.22.28-1.14-.58-.56-.63-.86-1.03-.32-.67-.09h-.67l-.84.13-.69.28-1.19.71-.56.06-.45-.09-.24-.35.22-.47-.13-.47.04-.11.3-.26.73-.39.17-.24.41-.24,1.7-.47.86.06.8-.11.84.11.8.19.67.41.22.32.78.67.5,1.44v.5l.21.52-.26.67.02.3-.26.58-.24.19-.06.62-.91,1.16-3.41,3.23-.86,1.1-.39.17-.04-.06-.22.75-.11.21-.22.17v.45l.11.5.11.19.45.34.47.04,1.08-.15h1.04l1.9.19.65-.13.71.22-.09.84.19.32-.28.22-.34.11h-7.57l-.07-.21Z"/>
      <path class="cls-1" d="M152.91,92.56l-.3-.39v-.65l-.19-.19-.11-.24v-.47l-.3-.84.09-.34-.24-1.21-.06-.8.21-.02-.17-.8v-1.66l.13-.56.09.02v-1.23l.52-1.83.32-.78.39-.63.75-.47.21-.22.07-.41.43-.28,1.12-.26.75-.13h.86l.67.13.45.22.65.22.65.34.41.63.24.11.39.58v.3l.5.97-.06.26.35.58.06,1.01.09.22-.09.54.17.34.11.43v.78l-.11.52.09.52-.09.6.11.43-.24.88v1.47l-.11.47-.35.47.04.52-.39.52-.04.52-.34.56-.43.45-.58.43h-1.23l-.06.17.06.3-.37.06h-.73l-.21.22h-.47l-1.16-.19-.56-.37-.78-.58-.67-.34-.52-.91ZM155.09,92.24l.62.43.52.24.52.09.47-.04.67-.15.75-.32.13-.22.04-.26.37-.65.45-1.27.06-.34.13-.24v-1.38l.15-.52-.13-1.29v-1.98l-.11-.32v-.93l-.24-.35-.11-.34.22-.5-.17-.09-.47-.43-.56-.63-.54-.17-.17-.41h.45l-.82-.32h-.39l-.58.15-.34.22-.22.19-.45.19-.24.17-.24.65-.3.17-.13.82-.11.32-.28.43.09.56-.19.54.09.3v.6l-.19,1.06.11.22v1.88l.15.63-.04.65.28.22v1.04l.19.47-.09.32.65.6Z"/>
      <path class="cls-1" d="M166.84,92.56l-.3-.39v-.65l-.19-.19-.11-.24v-.47l-.3-.84.09-.34-.24-1.21-.06-.8.21-.02-.17-.8v-1.66l.13-.56.09.02v-1.23l.52-1.83.32-.78.39-.63.75-.47.21-.22.07-.41.43-.28,1.12-.26.75-.13h.86l.67.13.45.22.65.22.65.34.41.63.24.11.39.58v.3l.5.97-.06.26.35.58.06,1.01.09.22-.09.54.17.34.11.43v.78l-.11.52.09.52-.09.6.11.43-.24.88v1.47l-.11.47-.35.47.04.52-.39.52-.04.52-.34.56-.43.45-.58.43h-1.23l-.06.17.06.3-.37.06h-.73l-.21.22h-.47l-1.16-.19-.56-.37-.78-.58-.67-.34-.52-.91ZM169.02,92.24l.62.43.52.24.52.09.47-.04.67-.15.75-.32.13-.22.04-.26.37-.65.45-1.27.06-.34.13-.24v-1.38l.15-.52-.13-1.29v-1.98l-.11-.32v-.93l-.24-.35-.11-.34.22-.5-.17-.09-.47-.43-.56-.63-.54-.17-.17-.41h.45l-.82-.32h-.39l-.58.15-.34.22-.22.19-.45.19-.24.17-.24.65-.3.17-.13.82-.11.32-.28.43.09.56-.19.54.09.3v.6l-.19,1.06.11.22v1.88l.15.63-.04.65.28.22v1.04l.19.47-.09.32.65.6Z"/>
      <path class="cls-1" d="M180.27,92.72l-.45-1.16-.15-.69-.09-1.06.3-.75-.24-.09.28-.88.32-.65.32-.41.24-.06.28-.19-.13-.17.22-.47.11-.78-.17-.43.17-.13-.58-.88.09-.47-.24-.6.13-.56.26-.43-.3.04v-.45l.17-.73.26-.41.45-.28v-.45l.19-.34,1.12-.67.82-.22.73-.13h.6l.93.13.75.22.88.54.65.71.32.63.06.32.3.34.17.52v.71l-.19.56v.97l-.26.26-.37.15.28.26-.02.41-.19.8.17.22.04.24-.04.26.88.95.28.47.11.52-.19.24.28.28v.86l.13.69-.32,1.44-.43.93-1.25,1.34-1.29.26-.41.39h-.86l-.09.15h-1.29l-.8-.17-.09-.15.52-.28-.13-.13h-1.7l-.37-.24-.17-.39h.13l-.28-.28-.43-.09-.19-.17-.24-.32ZM183.21,92.69l.99.24h1.16l.93-.19.58-.28.3-.26.32-.58.56-.78v-.52l-.11-.73.04-.6.09-.32-.54-.32-.75-.86-.06-.19-.91-.19-1.04-.13h-.62l-.39-.17-.58.41-.19.04-.52.41-.52.69-.19.43-.13.43-.11.73.09.24.15,1.12.39.54.45.45.6.41ZM183.9,84.91h.78l.88-.09.86-.39,1.06-1.29-.34-.34.09-.47-.13-.58-.54-.99-.52-.37-.86-.28-.84-.11-.3.15-.67.45-.45.39-.26.47-.34,1.94.91.39-.17.84.86.28Z"/>
      <path class="cls-1" d="M196.29,90.13l-.65-.93-.17-.47.24-.52-.11-.39.71-1.21.84-.95.28-.17.34-.09.52.09.04.3.39.32.19.6-.28.3.15.15.52-.06.04-.47.19-.22.43-.24.28-.02.3-.52.65-.32.11.02.41.26-.32.26.26.11.3.41-.19.39-.43.39-.04.39-.3.47-.04.45.07.34.26.47.43.62.22.52.04.34-.3.45-.11.06-.73.13-.32-.11-.54-.52.21-.28-.37-.06-.69-.28-.22.09-.37.8-.39.39-.22.04-.26-.04-.34-.24-1.04-1.08ZM198.41,88.73l.28-.5-.19-.11-.58.3.07.17.43.13Z"/>
    </g>
    <g>
      <path class="cls-1" d="M36.49,70.86l-3.14.15-.44-.34h-.53l-.58.34-.68-.29-.43-.14-.05-.44-.34-1.55-.19-1.35-1.21-4.16-.29-1.06v-.87l-.19-.34-1.16-2.8-.1-.77-.68-1.93-.34-2.66-.24-.63h-.48l-.19.53-.1,1.21-.48,1.55-.44,1.84-.39,1.26-.72,2.61-.19.58-.58,1.79-.92,3.24-.39,1.35-.48,1.84-.29.92-.34.19-7.01-.05-.58-.39-.1-.77-.24-.53-.58-2.27-.68-2.27-.53-1.16-.68-2.56-.29-.77-.58-2.13-.68-2.32-1.06-3.38-.29-1.06-.34-1.55-.53-1.64-.58-1.59v-.63l-.39-.97-.68-2.03-.34-.63-.82-.39-1.31.1H.15l-.15-.39.15-.68-.15-2.61.34-.53,2.13.19,3.48.05,3.58-.15,7.25-.19.19.19v2.03l.1,1.84-.24.15-2.95-.15-.63.29v.53l.39,1.88.48,1.59.77,2.51.29,1.55,1.06,3.48.48,1.88.68,3.19.44,2.71.39.24h.15l.58-.53.68-2.71.48-2.95.87-3.67.72-2.22.48-1.69v-.29l.68-1.59.1-.68.05-.63.29-1.06-.34-1.4-.58-.34-2.61.15-.29-.24-.1-.44-.05-.48.05-1.4-.1-1.45.24-.29,2.32.19,9.38-.05.92.19h1.06l.73-.39.72-.15.44.15.24.58-.19,1.93.19,1.69-.34.34h-.58l-1.06-.29h-1.5l-.53.68v.44l.29.53.48,1.01v.77l.24,1.21.43,1.55.53,2.22.19.34,1.06,3.77.34.58.19,2.08.29.77.29.87.24,2.03.63.68.34-.1.34-.68.39-1.93.05-.39.1-.39.24-.39.39-2.37v-.39l.48-1.26.19-.92.24-.48.1-1.16.58-1.64.53-1.84.34-1.16.34-1.64.48-1.4.1-1.06-.34-.34-1.26-.05-1.79.29-.24-.24-.15-2.61-.24-1.16.19-.34,8.02.05,4.2-.1.48.15.34.87-.14,1.59.14,1.11-.29.53-2.32-.15-.63.15-.87.82v.63l-1.11,3.38-.24.87-.87,3.29-.92,2.71-.05.15-.19,1.06-.39,1.26-.77,2.66v.34l-.39.58-.53,1.74-.24,1.02-1.35,4.54-.63,1.35-.24,1.84-.19.63-.43.34-1.84-.24ZM9.33,44.96l.39-.24-.68-.24-.24.29.1.19h.43ZM31.56,63.03l.34-.24v-.15l-.48-.72v-.53l-.29-.34h-.1l-.19.39v.58l-.05.58.39.43h.39ZM32.72,59.6v-.29h-.29l-.1.15.1.15h.29ZM34.41,65.4v-.29l-.39-.1.1.39h.29Z"/>
      <path class="cls-1" d="M67.42,70.86l-4.25-.1-.68-.19-10.78.1-.19-.43.1-1.74.05-1.5.29-.29,2.46-.05.82-.77.24-1.11-.05-3.48.19-3.62-.15-11.31.1-3.87-.34-.68-3.33-.05-.29-.15v-3.48l.19-.24.53-.1.72-.53h.1l.53.29.29.34,2.27-.1h11.21l.48.34.1,1.3.05,1.16-.19.73-.29.48-2.56-.05-.44.24-.34.48.1.48.05.48-.19,1.01v11.74l-.05,2.46-.1,2.42.15,1.69.05.58-.15,1.02.29,1.5.39.39,1.01.24,2.03.1.24.19.05,1.74.05,2.13-.39.24-.39-.05Z"/>
      <path class="cls-1" d="M70.61,70.33l-.05-.92v-.97l.19-1.69.24-.24h2.71l.58-.29.29-.63-.1-1.06-.1-1.93-.1-1.35.19-1.5v-1.69l.05-1.69-.05-1.98v-5.22l.05-3.38.15-.19v-1.4l-.19-1.4-.29-.48-.58-.34-1.88-.19-.82.24-.44-.24.15-1.21v-2.51l.44-.29h18.6l3.19-.15,6.48-.05,1.16.15.15.39.29,4.4.39,5.12.24,2.8.1.15-.15.39-.63.19-1.79-.24-2.27.19-.34-.44v-1.79l-.29-1.26v-1.55l-.68-1.35v-.29l-1.35-1.3-1.45-.68-.87-.19-1.3-.24h-4.64l-2.32.05-.19.19-.24,3.24.34.63-.05.53-.1.48-.05,2.46-.05,2.22.24.24,2.42-.1.92-.39.68-.77.19-.73v-1.11l-.05-1.35.53-.97.29-.15,1.4.19h.82l1.11-.24.34.43-.05,7.64.15,3.87-.1,1.06v1.06l-.05,1.06-.29.19-1.35-.14-2.71-.05-.15-.05-.1-.29.29-1.64v-2.27l-.24-.24h-.39l-1.02-1.06-.48-.14-1.11.24-1.06.05-.24.68-.05,2.32.15,2.42v2.8l-.19,1.5.24.34,4.35.05,1.88.24,1.84-.24,1.69-.34.77-.24.53-.48.97-1.11.29-1.5.29-1.4.29-1.84.24-1.4.34-.48h2.85l1.69-.19.44.19-.05.44-.05.39-.29,1.93-.24.97-.1.68-.05.73-.34,2.22-.19,3.14v2.32l-.1.34h-29.53l-.29-.29Z"/>
      <path class="cls-1" d="M105.6,70.33l-.05-.92v-.97l.19-1.69.24-.24h2.71l.58-.29.29-.63-.1-1.06-.1-1.93-.1-1.35.19-1.5v-1.69l.05-1.69-.05-1.98v-5.22l.05-3.38.15-.19v-1.4l-.19-1.4-.29-.48-.58-.34-1.88-.19-.82.24-.44-.24.15-1.21v-2.51l.44-.29h18.6l3.19-.15,6.48-.05,1.16.15.15.39.29,4.4.39,5.12.24,2.8.1.15-.15.39-.63.19-1.79-.24-2.27.19-.34-.44v-1.79l-.29-1.26v-1.55l-.68-1.35v-.29l-1.35-1.3-1.45-.68-.87-.19-1.3-.24h-4.64l-2.32.05-.19.19-.24,3.24.34.63-.05.53-.1.48-.05,2.46-.05,2.22.24.24,2.42-.1.92-.39.68-.77.19-.73v-1.11l-.05-1.35.53-.97.29-.15,1.4.19h.82l1.11-.24.34.43-.05,7.64.15,3.87-.1,1.06v1.06l-.05,1.06-.29.19-1.35-.14-2.71-.05-.15-.05-.1-.29.29-1.64v-2.27l-.24-.24h-.39l-1.02-1.06-.48-.14-1.11.24-1.06.05-.24.68-.05,2.32.15,2.42v2.8l-.19,1.5.24.34,4.35.05,1.88.24,1.84-.24,1.69-.34.77-.24.53-.48.97-1.11.29-1.5.29-1.4.29-1.84.24-1.4.34-.48h2.85l1.69-.19.44.19-.05.44-.05.39-.29,1.93-.24.97-.1.68-.05.73-.34,2.22-.19,3.14v2.32l-.1.34h-29.53l-.29-.29ZM114.49,35.15l-1.16-.73-.87-1.16-.34-.77-.19-1.11.19-.82.68-1.4,1.4-1.21.82-.24,1.06-.15,1.26.1,1.26.63.82.73.63,1.5.05,1.64-.73,1.55-.82.97-.77.44-1.69.24-1.59-.19ZM124.83,35.01l-.87-.48-1.16-1.69-.34-.72.15-.63.1-1.26.39-.87.72-.68.68-.53,1.16-.29.73-.05.48-.15,1.02.1.92.19.82.63.34.44.24.24.29.48v2.71l-.63,1.35-.73.77-1.4.77h-1.55l-1.35-.34Z"/>
      <path class="cls-1" d="M146.49,70.28l.19-1.4-.29-1.11v-1.01l.29-.29,2.85.1,1.59-.14.39-.39.24-.77-.1-8.21.05-8.02v-.19l.05-.19-.1-1.64.15-2.61.19-1.93-.24-.68-.34-.19-.63.43-.87-.05-1.35.19-1.59.97-.39.68-.53.68-.34,3-.39,2.22-.15,1.45-.19.24-3.19-.05-1.11.19-.48-.19-.19-.43.29-2.9.1-.29.24-1.45.15-1.93-.1-2.71.24-1.16.34-1.98-.14-.39.19-.29,1.88.05,2.08-.1h3.62l.82.29.29-.1,2.03-.19,7.3.05,9.04-.05,2.46-.15.19.24.19,1.93.39,5.27.19,1.01-.1.39.24,2.03.14,1.35.24,1.31-.1.29h-1.21l-.82-.19-2.9.05-.43-2.42-.29-2.03-.72-2.17-.77-1.64-.87-.63-1.01-.34-1.93-.19-.53-.1-.39.43.15.82-.05,19.72v2.85l.34.72.68.24,3.19-.1.72.15.14.29.15,3.43-.44.43-8.21-.24-8.94.1-1.4.14-.19-.48Z"/>
      <path class="cls-1" d="M188.34,71.2l-1.98-.19-2.37-.87-1.5-.87-.73-.63-.72-.87-.92-.97h-.48l-.24.29.14,1.5.1,1.74-.24.34-4.3.05-.24-.19v-6.72l.1-.63.05-.68-.19-2.22.1-1.4.24-.24h3l1.35-.15.43.39v.43l.72,2.03.48.77.53,1.11,1.59,1.64,1.11.73.87.39,1.84.63,1.84.14h1.55l1.59-.58,1.64-.34.58-.58.53-.58.43-1.16v-.68l-.43-1.69-.19-.34-1.4-1.02-1.55-.53h-.48l-1.55-.48-1.93-.58h-.68l-1.06-.39-1.45-.29-2.75-1.06-2.61-1.3h-.1l-1.35-.87-.48-.63-1.3-2.27v-.39l-.39-1.16-.39-1.88.1-.87-.24-.82.29-1.55.39-1.16.53-1.21.14-.53,2.22-2.37,1.5-.87,1.4-.29.53-.53,1.01-.34,1.26-.19,1.06-.19,2.56.1h1.45l2.13.48,1.11.63,1.5.92.92,1.06.43.68.39.48.44-.15.19-.44-.05-2.8.15-.29,1.55.15,2.71-.1.29.19.05.29.05.24-.34,5.56.05,2.42.05,2.22-.34.19-4.45-.05-.15-.05-.14-.58-.15-.68-1.21-2.46-2.56-2.42-.44-.15-1.16-.77-.39.19-1.55-.29-1.45.1-2.37.43-.68.68-1.16,1.06-.29.92.1,1.35.53,1.06.43.63,1.01.34,1.11.68h.19l1.06.48,1.5.1,2.13.68,3.09.73,2.08.72,2.13.97,1.74,1.16.72.92,1.06.58.19.92.58.73.58,1.45.24,1.11-.19,3.67-.48,1.26-1.01,1.88-1.5,2.03-.58.15-.77.58-2.85,1.4-2.17.58-.68-.39-.34.68-2.75.19-1.3-.24ZM197.18,64.63l.24-.34-.29-.34h-.43l-.14.44.24.29.39-.05ZM199.55,61.83h-.39l.05.24.34.1v-.34Z"/>
      <path class="cls-1" d="M212.22,70.81l-1.74-.77-1.01-.48-1.64-1.55-.92-1.06-1.26-2.61-.39-1.4-.19-.68v-.72l.14-.48.19-2.22.24-.29.68-1.79h.19l.53-.77,1.74-1.45,2.17-.58h.43l1.5.29,1.3.72.58.68.43.58.44,2.03v.44l-.44,1.5-1.4,1.69-1.59.63-.87.1-.53-.34-1.01-.24-.43.34.39,1.35.97,1.5,1.26.82,1.3.29h1.84l1.11.19.68-.63,1.16-.63.48-.92.68-.97.43-1.79.1-1.21.29-3.48-.43-2.9.24-1.21-.19-1.26-.14-4.88-.1-.24.34-3.48-.24-.77-.48-.19-.39.1-.72-.24-2.56-.05-.29-.24.05-3.33.48-.53h1.21l.68.34.68-.34h.53l.34.34,1.5-.24,7.39.1,3.87-.19.39.34-.1,2.32.19.97-.43.44-.77.34-.77-.29h-1.11l-.72,1.11-.05.72v.77l-.34,1.4.1,2.85.1.58.1,3.77.1.15v5.61l-.1,2.8-.19.58-.48,1.4-.29.82-.29.34-.1.44-.05.39-1.4,2.22-.53.43-1.59,1.06-1.35,1.11-2.61.63-3.48.44h-.87l-2.9-.58Z"/>
      <path class="cls-1" d="M240.15,70.67l-7.35-.05-3.09.1-.48-.24-.05-2.46v-.97l.68-.63,2.32.14.63-.39.34-.48.29-1.26.87-1.93v-.24l.48-1.01.68-1.84.43-1.35.73-1.93,1.16-2.9.39-.58,1.26-3.58.87-2.22,1.06-3.09,1.16-2.8.77-2.22.29-.73.39-.39.39.05.34.05,7.35-.1.34.15.19.82.44,1.59,1.35,3.29.29,1.01.68,1.69.14.48.63,1.26v.29l.63,1.26.39,1.35.39.97.97,2.51.97,3,1.74,4.74.48,1.16.19.39.77,1.84.19.53.72.63h2.9l.24.24-.24.72.15,2.8-.29.24-2.75.1-4.45-.19-1.84.1-5.51.05-1.21-.14-.87.29-.39-.39.15-2.13-.05-.58v-.58l-.1-.34.1-.39h.48l.53.24h2.08l.97-.48-.1-.82-.87-1.64.1-1.26-.19-.34h-1.69l-1.06-.05h-1.35l-4.25.14-3.67-.1-.53.19-.58,1.5-.58,1.35-.05.53-.05.48.82.48h1.45l1.11-.19.48.1.19.48v3.09l-.34.68-2.13-.1ZM250.25,57.96l.29-.19-.24-1.3-.58-1.01-.58-1.35v-.44l-.68-2.56-.29-.77-.53-1.26-.34-1.26-.53-.97-.34-1.93-.24-.05h-.29l-.44.63-.1,1.02-.87,2.46-.68,2.08-.48.97v.29l-1.26,3.53-.77,1.5v.48l.34.19,3.29-.19h.29l3.09.15.24.15,1.69-.15Z"/>
      <path class="cls-1" d="M277.46,70.57h-8.89l-1.06.14-.29-.29-.1-3.67.48-.48.48.15,2.37.14.48-.48.05-11.11v-11.45l.15-.92-.1-.53-.53-.34h-2.51l-.53.43h-.29l-.1-.24v-1.16l.05-1.16.19-1.74v-.15l.39-.19,3.19.29,3.96-.15h1.64l2.13.1,4.49.05,2.61-.15h2.08l2.08.05.63.1h4.64l1.59-.24.39.24.1,2.95.15,1.3.1,1.31.1,4.74.05.97.1.97.14,1.21-.19.43-1.21-.1-1.74-.24-1.35.15-.34-.39-.14-1.35-.34-1.93-.29-1.06-.34-1.79-.48-1.06-.43-.48-1.45-.97-.68-.29-2.08-.1h-.58l-2.61-.05-3.19.05-.44.24-.19.48v6.04l-.24,2.37.43,1.21.58.24,1.98-.24.58-.24.43-.63.48-.1.39-.53-.05-3.62.15-.24.48-.1.72.19h2.9l.19.34-.05.97-.05,1.02.19.53-.15,5.65-.24,2.13.43,4.01-.19.34-.63.1-3.48.1-.39-.39.05-1.84v-1.45l-.39-1.16-.24-.43-.87-.39h-1.55l-1.26.19-.29.24.05,2.95-.05,3.14-.1,1.3.19,1.26.72.82,1.06.29.63-.19,2.37-.14.24.48-.05.58v.87l-.05.29.19,1.11-.34.63-1.26.39-5.9-.29ZM275.09,65.21l-.05-.34-.34-.1-.19.44.05.43.43.05.1-.48ZM276.93,62.89l-.15-.24h-.29v.29l.29.24.15-.29ZM278.67,60.14l-.19-.34-.14-.05h-.19v.39l.34.24.19-.24ZM279.15,54.77v-.34h-.19v.48l.19-.15ZM295.73,49.12v-.53l-.34-.34h-.24l-.24.48.19.53.34.05.29-.19Z"/>
    </g>
    <g>
      <path class="cls-1" d="M58.35,30.22l-1.01-.25-1.1-.63-1.31-1.14-.59-.89-.93-1.64-.08-.63-.42-.55-.08-1.1-.29-1.98-.25-1.35.13-.42.13-2.53.25-1.43.25-.38.51-1.94.89-1.35,1.85-1.81,2.15-1.01,1.85-.46,1.81.13.84.17.93.34,1.14.84,1.26,1.69.42.84.46.55.42-.08v-.76l-.25-.93-.25-1.77-.04-2.74-.04-2.78-.25-.29-.55-.25h-.84l-.25.38-.25-.38h-.42l-.13-.21V.25l.25-.25.67.13,2.78.13,5.94-.17.63.13.13.29-.04,1.26-.08,1.26.04,13.4-.21,2.61.21,2.78v1.39l-.13,2.36.25.38.72.21h1.94l-.04,3.41-.38.34-.34-.13h-1.94l-.63-.17-1.64.04-2.57-.04-1.9.08-.42-.08-.13-.38.08-.84.08-.88-.13-.97-.42-.21-.42.29-.8,1.52-.8.89-1.35.76-.88.42-.76.13-2.23.04-1.43-.17ZM55.53,13.74v-.51h-.42l-.08.13v.46l.13.21.38-.29ZM55.78,25.79v-.25h-.25v.25h.25ZM56.45,22.13v-.38l-.21-.21h-.29l-.21.25.13.42.34.13.25-.21ZM56.58,25.54l.13-.25-.13-.25h-.21l-.13.25.13.25h.21ZM59.87,25.88l-.04-.17-.04-.21-.17-.04-.13.13v.3h.38ZM64.29,25.46l1.43-.67.88-1.35.25-.63.34-1.73.04-1.1v-1.1l-.29-1.56-.04-1.39-.42-.76-.84-.93-1.05-.76-1.56-.04h-.34l-.72.21-.8.72-.55.59-.46,1.1v.46l-.25.84v.67l.17,1.77-.17,1.1v1.01l.38,1.05.25.76,1.85,1.81.38.08.84.08.67-.25ZM62.35,28.28l.17-.25-.08-.34h-.21l-.3.34.13.25h.3ZM70.78,9.52v-.29l-.21-.21h-.21l-.21.17.08.42.29.08.25-.17ZM71.71,27.82l.13-.38-.17-.21h-.08l-.38.25v.34l.17.08.34-.08ZM72.38,14.33v-.29l-.13-.25h-.21l-.17.29v.42l.17.13.34-.29ZM72.6,13.11l.38-.72-.25-.67v-.46l.25-.42v-1.05l-.13-.25h-.13l-.17.21-.21.42-.21,1.18.34.25-.13.51-.3.72.17.34.21.08.17-.13Z"/>
      <path class="cls-1" d="M88.23,30.01l-.97-.34h-.46l-.84-.25-1.1-.46-1.01-.59-.34-.29-.67-.34-.72-.72-.76-1.14-.55-1.01-.76-1.98-.04-.93-.08-.89-.17-1.26.21-2.91.17-1.01.42-1.18.25-.59,1.18-1.9,2.11-1.85,2.02-1.01.93-.25,2.32-.42.42-.08,1.01.04,1.01-.13,1.94.25,1.77.59,1.39.63,1.01.67,1.18,1.1.76,1.18.63.93.46,1.01.51,2.57-.04,2.19v.42l.04.38-.38.34-11.8-.08-1.64-.17-.25.08-.13.34.21,1.35.3.51.08.63.42.89,1.1,1.1.76.46,1.35.38,1.98-.13,1.43-.55.8-.59.72-1.18.34-1.01,2.02.04,1.77-.04.38.25v.29l-.34,1.1-.51,1.1-.97,1.35-1.85,1.77-1.56.76-1.05.42-1.98.25-2.11.08-2.32-.17ZM88.19,17.28l2.91-.08,2.66.04.34-.29-.17-2.32-.42-1.26-.21-.51-1.26-.59-.76-.04h-.76l-.72.21-1.18.72-.42.55-.25.51-.21,1.85-.17,1.01.21.34.42-.13ZM97.88,17.91v-.25l-.25-.08-.17.21.13.21.3-.08Z"/>
    </g>
  </g>
</svg>