<?xml version="1.0" encoding="UTF-8"?>
<svg id="Layer_2" data-name="Layer 2" xmlns="http://www.w3.org/2000/svg" viewBox="0 0 292.71 144.7">
  <g id="Layer_1-2" data-name="Layer 1">
    <path d="M46.69,53.42c-.7-2.04-1.82-3.7-3.35-4.97l-37.03-1.89c2.02,4.64,6.53,7.87,13.51,9.7.74.16,1.78.39,3.12.67,1.34.29,2.38.54,3.13.76.75.22,1.55.49,2.42.81s1.49.72,1.86,1.19c.38.48.53,1.05.48,1.73-.23,2.09-2.31,3.3-6.27,3.62-5.01.4-8.58-1.55-10.72-5.86L0,67.77c1.76,4.51,4.68,7.9,8.76,10.18,4.08,2.27,9.29,3.15,15.63,2.64,6.79-.55,12.2-2.44,16.22-5.68,4.03-3.23,6.31-7.73,6.85-13.49.26-3.1,0-5.77-.77-8Z"/>
    <path d="M37.89,45c.86.34,1.74.77,2.62,1.3l-35.15-3.23c-.24-1.48-.29-3.07-.14-4.77.47-5.3,2.65-9.73,6.54-13.28,3.89-3.54,8.83-5.58,14.84-6.12,5.01-.44,9.39.34,13.16,2.35s6.77,5.14,8.99,9.36l-13.42,8.78c-1.78-3.65-4.6-5.31-8.43-4.97-2.89.26-4.47,1.41-4.73,3.45-.12,1.24.48,2.2,1.77,2.87,1.3.67,3.89,1.47,7.78,2.41,2.47.57,4.52,1.18,6.18,1.84Z"/>
    <path d="M111.8,31.99c-1.19-3.63-2.99-6.83-5.4-9.6-2.41-2.78-5.58-4.92-9.51-6.42-3.93-1.5-8.28-2.06-13.07-1.68-9.24.75-16.78,4.29-22.63,10.61-5.85,6.33-9.11,13.58-9.8,21.75-.02.29-.04.58-.05.87l16.63,1.67c-.08-.91-.07-1.86.03-2.87.4-4.12,2.07-7.66,5.03-10.61,2.95-2.96,6.49-4.6,10.61-4.94,4.11-.33,7.4.77,9.84,3.29,2.44,2.52,3.47,5.84,3.07,9.96-.39,4.12-2.07,7.66-5.02,10.61s-6.5,4.6-10.61,4.93c-4.12.33-7.4-.76-9.84-3.28-1.74-1.79-2.75-3.98-3.06-6.57l-16.72-.85c-.05,4.48.84,8.7,2.68,12.67,2.14,4.61,5.59,8.31,10.35,11.09,4.76,2.78,10.31,3.92,16.66,3.41,9.35-.76,16.88-4.33,22.62-10.74,5.72-6.39,8.9-13.71,9.53-21.94.29-3.94-.15-7.73-1.34-11.36Z"/>
    <path d="M157.69,46.81c-2.99,4.61-6.79,7.11-11.41,7.48-4.01.32-7.12-.81-9.35-3.4-2.22-2.6-3.16-5.9-2.81-9.9.39-4.18,2.01-7.73,4.85-10.65.35-.36.72-.7,1.09-1.02l-14.93-7.48c-4.54,5.56-7.1,12.11-7.69,19.65-.72,9.14,1.65,16.48,7.11,22.03,5.46,5.55,12.73,7.96,21.8,7.23,5.62-.45,10.68-2.11,15.18-4.96,4.51-2.86,8.08-6.63,10.73-11.33l-14.57-7.65ZM148.86,9.13c-8.38,1.13-15.41,4.79-21.05,11.02l15.46,7.67c1.87-1.17,3.97-1.91,6.29-2.23,4.92-.66,8.79.87,11.6,4.61l14.11-10.09c-6.21-8.85-15.01-12.51-26.41-10.98Z"/>
    <path d="M177.04,47.85l-1.83,19.23,16.62-1.34.95-10.01-15.74-7.88Z"/>
    <polygon points="197.46 6.47 192.8 55.55 177.14 46.72 180.84 7.81 197.46 6.47"/>
    <path d="M245.65,32.79l-15.19,5.96.5,2.83-9.69.78,6.57-18.6,2.54,14.49,14.98-6.75-6.42-28.38-19.53,1.58-24.17,60.76,18.45-1.49,2.73-7.78,16.87-1.36,1.27,7.46,17.45-1.41-6.36-28.09Z"/>
    <path d="M273.51,42.85l2.08-21.82-17.12,6.72-3.13,32.86,35.84-2.89,1.53-16.42-19.2,1.55Z"/>
    <polygon points="279.1 0 277.41 17.73 260.18 25.5 262.48 1.34 279.1 0"/>
    <polygon points="30.39 111.2 14.67 118.47 9.09 86.7 26.13 85.33 30.39 111.2"/>
    <polygon points="60 97.51 34.33 109.38 43.87 83.9 57.04 82.84 60 97.51"/>
    <polygon points="93.4 79.9 71.32 140.5 54.62 141.84 48.37 110.93 35.97 143.35 19.28 144.7 15.16 121.27 30.7 113.13 31.38 117.25 33.47 111.68 60.05 97.76 63.46 114.64 74.95 81.39 93.4 79.9"/>
    <path d="M133.35,103.55l-14.87,6.87h0s.91,5.19.91,5.19l-9.68.79,6.56-18.6,2.17,12.37,14.67-7.69-5.73-25.32-19.54,1.58-24.17,60.76,18.45-1.49,2.74-7.78,16.86-1.36,1.27,7.46,17.45-1.41-7.09-31.37Z"/>
    <path d="M168.88,96.57l-5.56,16.76-5.89-38.6-17.28,1.4,12.65,57.79,18.69-1.5,14.84-37.93-17.45,2.08Z"/>
    <polygon points="195.25 71.68 186.85 93.15 169.01 96.17 176.63 73.19 195.25 71.68"/>
    <path d="M211.16,113.75l.65-6.6,19.2-1.55,1.46-15.24-19.2,1.55.06-.64-16.79,2-3.51,37.41,38.4-3.1,1.44-15.58-21.71,1.75Z"/>
    <polygon points="236.94 69.01 234.99 84.37 213.66 85.38 213.28 88.51 196.34 90.82 198.88 70.82 236.94 69.01"/>
  </g>
</svg>